<svg width="376" height="191" viewBox="0 0 376 191" fill="none" xmlns="http://www.w3.org/2000/svg">
<g opacity="0.3">
<path d="M218.358 50.3909H244.559V140.315H195.482V20.1248H218.358V50.3909Z" fill="#05347F"/>
<path d="M267.596 36.1502H244.559V108.265H267.596V36.1502Z" fill="#05347F"/>
<path d="M298.645 50.1724H267.596V140.315H298.645V50.1724Z" fill="#05347F"/>
<path d="M195.482 43.1613H171.444V133.304H195.482V43.1613Z" fill="#05347F"/>
</g>
<path opacity="0.5" d="M365.255 57.0351V139.116H310.508V73.6715H320.567V57.0351H365.255Z" fill="#05347F"/>
<path d="M375.037 125.586V191L210.123 190.664V146.382L225.639 143.018C225.639 143.018 241.216 143.018 246.977 142.161C252.738 141.305 270.388 133.354 270.388 133.354L281.515 126.687L293.921 124.118L299.073 122.406L308.888 117.451L313.186 116.595L315.686 119.164L321.996 119.806L323.764 121.733L331.537 124.944L336.079 127.941L338.548 126.871H344.127L355.406 122.589H360.344L363.27 123.201L374.884 125.617H375.037V125.586Z" fill="#023689"/>
<path d="M302.456 127.635L294.683 130.846C294.683 130.846 291.94 136.81 289.074 139.226C286.209 141.642 275.113 146.321 275.113 146.321L266.608 155.495L252.464 174.761L246.764 190.664H269.809L286.483 155.801L299.317 145.158C299.317 145.158 305.108 137.911 308.218 136.779C311.327 135.648 314.436 134.7 316.753 133.384C319.07 132.069 320.35 129.837 324.282 130.326C324.282 130.326 325.989 128.553 330.409 129.042C334.829 129.531 336.049 127.91 336.049 127.91L331.507 124.913L323.734 121.702L321.966 119.776L315.656 119.133L313.156 116.565L309.498 122.314L302.456 127.635Z" fill="#032E72"/>
<path d="M375.037 125.586V129.44L369.519 133.109L360.679 141.336L347.053 148.584L331.324 156.779L319.222 170.816L323.033 160.969L336.049 148.217L348.151 142.467L353.302 133.904L357.143 127.146L363.24 123.201L374.854 125.586H375.037Z" fill="#032E72"/>
<path opacity="0.3" d="M157.209 50.4542V190.951H57.5154V50.6516L57.7284 50.4542L69.9277 40.6443L82.127 50.4542L82.1574 50.5106L81.8836 50.7361H82.4616L82.1574 50.5106L82.2182 50.4542L94.4175 40.6443L106.617 50.4542L106.891 50.6798L106.83 50.7361H106.951L106.891 50.6798L107.164 50.4542L119.364 40.6443L131.563 50.4542L131.837 50.6798L131.776 50.7361H131.898L131.837 50.6798L132.111 50.4542L144.31 40.6443L156.509 50.4542H157.209Z" fill="#05347F"/>
<path opacity="0.3" d="M57.4356 50.9496L57.2233 51.162V50.9496H57.4356Z" fill="#05347F"/>
<path opacity="0.3" d="M81.9754 50.9496L81.9145 51.0106L81.8842 50.9496H81.9754Z" fill="#05347F"/>
<path opacity="0.3" d="M82.2195 51.2547H81.6403L81.9147 51.0107L82.2195 51.2547Z" fill="#05347F"/>
<path opacity="0.3" d="M106.76 51.2563H106.636L106.698 51.1943L106.76 51.2563Z" fill="#05347F"/>
<path opacity="0.3" d="M106.972 50.9496L106.697 51.1936L106.423 50.9496H106.972Z" fill="#05347F"/>
<path opacity="0.3" d="M131.695 51.1943L131.756 51.2563H131.633L131.695 51.1943Z" fill="#05347F"/>
<path opacity="0.3" d="M131.968 50.9496L131.694 51.1936L131.419 50.9496H131.968Z" fill="#05347F"/>
<g opacity="0.3">
<path opacity="0.3" d="M57.2252 51.1632V51.2561H57.1014L57.2252 51.1632Z" fill="#05347F"/>
<path opacity="0.3" d="M82.2195 51.2547H81.6403L81.9147 51.0107L82.2195 51.2547Z" fill="#05347F"/>
</g>
<g opacity="0.3">
<path opacity="0.3" d="M82.2195 51.2547H81.6403L81.9147 51.0107L82.2195 51.2547Z" fill="#05347F"/>
<path opacity="0.3" d="M106.76 51.2556H106.636L106.698 51.1937L106.76 51.2556Z" fill="#05347F"/>
</g>
<g opacity="0.3">
<path opacity="0.3" d="M106.76 51.2563H106.636L106.698 51.1943L106.76 51.2563Z" fill="#05347F"/>
<path opacity="0.3" d="M131.756 51.2563H131.633L131.695 51.1943L131.756 51.2563Z" fill="#05347F"/>
</g>
<g opacity="0.3">
<path opacity="0.3" d="M131.756 51.2563H131.633L131.695 51.1943L131.756 51.2563Z" fill="#05347F"/>
</g>
<path d="M238.497 57.2803H142.638L141.488 190.568H185.583H238.497V57.2803Z" fill="#043D8E"/>
<path d="M70.7209 11.621V190.951H11.797V36.9732L30.6051 28.869L57.7046 17.2174L64.228 14.4039L70.7209 11.621Z" fill="#05347F"/>
<path d="M70.8667 2.06546V24.2649H70.8053V190.951H11.8175V46.17L30.631 37.5387L57.7924 25.1476L63.6851 22.4667V2.06546H70.8667Z" fill="#196ECC"/>
<path d="M63.7097 2.06924V15.8107L57.857 18.716V2.06924L63.7097 2.06924Z" fill="#05347F"/>
<path d="M128.068 67.2496H75.1535V190.716H128.068V67.2496Z" fill="#043D8E"/>
<path d="M139.195 67.3773H84.356L84.3865 67.3467L84.4169 67.3161H84.5693C94.263 64.839 102.128 58.7839 105.359 49.8846C105.42 49.6705 105.511 49.487 105.572 49.273C105.694 48.9366 105.786 48.6002 105.877 48.2944C106.365 46.5818 106.7 44.7775 106.853 42.8508H116.302C116.455 44.7469 116.76 46.5818 117.247 48.2944C117.278 48.3861 117.308 48.4778 117.339 48.5696C117.369 48.6613 117.4 48.7837 117.43 48.8754C117.522 49.2118 117.644 49.5482 117.765 49.8846C120.875 58.6921 128.465 64.6861 137.945 67.3161H139.104L139.195 67.3773Z" fill="#05347F"/>
<path d="M146.473 67.4848H98.1597V190.951H146.473V67.4848Z" fill="#196ECC"/>
<path d="M139.348 67.2855H102.097C102.951 67.0408 103.774 66.735 104.566 66.3681C104.871 66.2457 105.176 66.0928 105.45 65.9399C111.608 62.8817 116.119 56.9183 117.186 49.854C117.217 49.6399 117.247 49.4564 117.278 49.2423C117.308 48.9059 117.339 48.6001 117.369 48.2637H124.411C124.441 48.6001 124.472 48.9059 124.502 49.2423C124.533 49.4564 124.563 49.6399 124.594 49.854C125.661 57.2241 130.447 63.3711 137 66.3681C137.762 66.7045 138.555 67.0103 139.348 67.2855Z" fill="#196ECC"/>
<path d="M280.675 57.2803H185.583V190.716H280.675V57.2803Z" fill="#196ECC"/>
<path d="M259.936 116.455H208.968V121.963H259.936V116.455Z" fill="#043D8E"/>
<path d="M274.54 136.268H200.154V190.716H274.54V136.268Z" fill="#1A88FF"/>
<path d="M204.755 136.268H192.485V190.716H204.755V136.268Z" fill="#043D8E"/>
<path d="M196.226 122.755C198.061 122.755 199.549 121.263 199.549 119.422C199.549 117.581 198.061 116.088 196.226 116.088C194.391 116.088 192.904 117.581 192.904 119.422C192.904 121.263 194.391 122.755 196.226 122.755Z" fill="#032E72"/>
<path d="M195.373 122.052C196.72 122.052 197.811 120.956 197.811 119.605C197.811 118.254 196.72 117.159 195.373 117.159C194.026 117.159 192.934 118.254 192.934 119.605C192.934 120.956 194.026 122.052 195.373 122.052Z" fill="#043D8E"/>
<path d="M271.276 122.755C273.111 122.755 274.598 121.263 274.598 119.422C274.598 117.581 273.111 116.088 271.276 116.088C269.441 116.088 267.953 117.581 267.953 119.422C267.953 121.263 269.441 122.755 271.276 122.755Z" fill="#032E72"/>
<path d="M270.239 121.868C271.485 121.868 272.495 120.855 272.495 119.605C272.495 118.355 271.485 117.342 270.239 117.342C268.994 117.342 267.984 118.355 267.984 119.605C267.984 120.855 268.994 121.868 270.239 121.868Z" fill="#043D8E"/>
<path d="M364.036 190.548H238.842C239.512 185.471 240.762 180.578 242.561 175.96H254.662C255.059 174.676 255.455 173.422 255.943 172.168H244.176C245.487 169.355 247.011 166.633 248.688 164.064H248.718H259.723C260.454 162.779 261.247 161.495 262.1 160.272H251.401C253.657 157.336 256.187 154.584 258.93 152.076H268.898C270.209 150.791 271.55 149.538 272.983 148.376H263.381C273.958 140.333 287.157 135.531 301.485 135.531C302.125 135.531 302.765 135.531 303.405 135.562C304.045 135.592 304.655 135.592 305.264 135.654C318.098 136.418 329.925 141.036 339.558 148.376C341.082 149.538 342.576 150.791 344.008 152.076C346.752 154.584 349.252 157.336 351.538 160.272C352.483 161.495 353.397 162.779 354.251 164.064C355.958 166.633 357.452 169.355 358.762 172.168C359.341 173.422 359.89 174.676 360.378 175.96C362.115 180.578 363.365 185.471 364.036 190.548Z" fill="#043D8E"/>
<path d="M364.981 190.854V190.915H362.755C362.755 190.885 362.755 190.854 362.755 190.854H252.346C252.346 190.762 252.346 190.671 252.346 190.548C252.468 185.502 253.26 180.609 254.632 175.961C254.998 174.676 255.424 173.422 255.912 172.169C256.979 169.355 258.229 166.633 259.723 164.065C260.454 162.78 261.247 161.496 262.1 160.272C262.649 159.477 263.228 158.682 263.807 157.887C264.783 156.633 265.789 155.41 266.856 154.217C267.526 153.483 268.197 152.749 268.898 152.046C270.209 150.762 271.55 149.508 272.983 148.346C281.122 141.648 291.181 137.183 302.186 135.899C303.222 135.777 304.228 135.685 305.264 135.624C306.392 135.562 307.551 135.501 308.678 135.501C322.243 135.501 334.681 140.303 344.405 148.315C345.837 149.477 347.179 150.731 348.489 152.015C350.989 154.523 353.275 157.275 355.257 160.211C356.11 161.434 356.872 162.719 357.634 164.003C357.97 164.584 358.305 165.196 358.61 165.777C359.402 167.276 360.103 168.805 360.744 170.364C360.987 170.945 361.201 171.526 361.414 172.107C361.871 173.361 362.298 174.615 362.695 175.9C362.938 176.695 363.152 177.49 363.365 178.316C363.731 179.814 364.066 181.343 364.31 182.903C364.706 185.533 364.95 188.163 364.981 190.854Z" fill="#196ECC"/>
<path d="M139.654 76.3935H104.598V80.9808H139.654V76.3935Z" fill="#043D8E"/>
<path d="M139.654 88.626H104.598V93.2133H139.654V88.626Z" fill="#1787FF"/>
<path d="M139.654 100.859H104.598V105.446H139.654V100.859Z" fill="#043D8E"/>
<path d="M139.654 113.091H104.598V117.679H139.654V113.091Z" fill="#E39614"/>
<path d="M139.654 125.324H104.598V129.911H139.654V125.324Z" fill="#043D8E"/>
<path d="M139.654 137.556H104.598V142.144H139.654V137.556Z" fill="#043D8E"/>
<path d="M139.654 149.789H104.598V154.376H139.654V149.789Z" fill="#043D8E"/>
<path d="M139.654 162.022H104.598V166.609H139.654V162.022Z" fill="#1787FF"/>
<path d="M259.936 85.629H208.968V90.889H259.936V85.629Z" fill="#E39614"/>
<path d="M259.936 101.042H208.968V106.302H259.936V101.042Z" fill="#1A88FF"/>
<path d="M127.612 42.178H114.504V48.2637H127.612V42.178Z" fill="#196ECC"/>
<path d="M114.504 42.178H104.444V48.2637H114.504V42.178Z" fill="#05347F"/>
<path opacity="0.35" d="M139.348 67.2856H102.097C102.951 67.0409 103.774 66.7351 104.566 66.3681C104.871 66.2458 105.176 66.0929 105.45 65.94H135.903C137.031 66.4599 138.189 66.9186 139.348 67.2856Z" fill="#043D8E"/>
<path opacity="0.35" d="M124.594 49.8539H117.369C117.369 49.7316 117.4 49.6093 117.4 49.4869V49.4564C117.4 49.3952 117.4 49.3034 117.43 49.2423C117.43 49.12 117.461 48.9976 117.461 48.8753C117.461 48.8447 117.461 48.8141 117.461 48.753C117.461 48.6001 117.491 48.4472 117.491 48.2943H124.411C124.441 48.6306 124.472 48.9365 124.502 49.2729C124.533 49.4564 124.563 49.6398 124.594 49.8539Z" fill="#043D8E"/>
<path d="M117.491 48.2638C117.491 48.4167 117.461 48.5696 117.461 48.7225C117.461 48.7531 117.461 48.7837 117.461 48.8448C117.461 48.9672 117.43 49.0895 117.43 49.2118C117.43 49.273 117.43 49.3647 117.4 49.4259C117.4 49.5482 117.369 49.7011 117.369 49.8235H105.389C105.45 49.6094 105.542 49.4259 105.603 49.2118C105.725 48.8754 105.816 48.539 105.908 48.2332H113.62V48.2638H117.491Z" fill="#072A70"/>
<path d="M19.9387 46.7792V32.2086H13.8037H7.66873V46.7792H19.9387Z" fill="#196ECC"/>
<path d="M7.66872 32.2086H0V46.7792H7.66872V32.2086Z" fill="#043D8E"/>
<path d="M12.5844 46.7792H4.91568V190.951H12.5844V46.7792Z" fill="#043D8E"/>
<path d="M60.9663 51.3771H25.9107V55.9643H60.9663V51.3771Z" fill="#043D8E"/>
<path d="M60.9663 63.6098H25.9107V68.197H60.9663V63.6098Z" fill="#043D8E"/>
<path d="M60.9663 75.8423H25.9107V80.4296H60.9663V75.8423Z" fill="#043D8E"/>
<path d="M60.9663 88.0751H25.9107V92.6623H60.9663V88.0751Z" fill="#043D8E"/>
<path d="M60.9663 100.308H25.9107V104.895H60.9663V100.308Z" fill="#043D8E"/>
<path d="M60.9663 112.54H25.9107V117.128H60.9663V112.54Z" fill="#043D8E"/>
<path d="M60.9663 124.773H25.9107V129.36H60.9663V124.773Z" fill="#043D8E"/>
<path d="M60.9663 137.006H25.9107V141.593H60.9663V137.006Z" fill="#043D8E"/>
<path d="M60.9663 149.238H25.9107V153.825H60.9663V149.238Z" fill="#043D8E"/>
<path d="M60.9663 161.471H25.9107V166.058H60.9663V161.471Z" fill="#043D8E"/>
<path d="M31.0623 68.197H25.9107V63.6098H29.6601L31.0623 68.197Z" fill="#1787FF"/>
<path d="M34.7813 80.4296H25.9107V75.8423H33.379L34.7813 80.4296Z" fill="#1787FF"/>
<path d="M38.5307 92.6623H25.9107V88.0751H37.1285L38.5307 92.6623Z" fill="#1787FF"/>
<path d="M42.2801 104.895H25.9107V100.308H40.8779L42.2801 104.895Z" fill="#1787FF"/>
<path d="M45.9991 117.128H25.9107V112.54H44.5968L45.9991 117.128Z" fill="#1787FF"/>
<path d="M49.7485 129.36H25.9107V124.773H48.3462L49.7485 129.36Z" fill="#1787FF"/>
<path d="M53.4979 141.593H25.9107V137.006H52.0957L53.4979 141.593Z" fill="#1787FF"/>
<path d="M57.2168 153.825H25.9107V149.238H55.8146L57.2168 153.825Z" fill="#1787FF"/>
<path d="M60.9663 166.058H25.9107V161.471H59.564L60.9663 166.058Z" fill="#1A88FF"/>
<path d="M159.509 91.0227H146.473V190.716H159.509V91.0227Z" fill="#0858B7"/>
<path d="M169.479 92.5564H159.509V190.716H169.479V92.5564Z" fill="#05347F"/>
<path d="M157.421 89.2344H146.404V98.2487H157.421V89.2344Z" fill="#0858B7"/>
<path d="M171.444 89.2344H157.421V98.2487H171.444V89.2344Z" fill="#05347F"/>
<path opacity="0.35" d="M159.425 98.2487H146.404V100.252H159.425V98.2487Z" fill="#043D8E"/>
<path d="M169.44 98.2487H159.424V100.252H169.44V98.2487Z" fill="#072A70"/>
<path d="M196.226 91.5925C198.061 91.5925 199.549 90.1001 199.549 88.2591C199.549 86.4181 198.061 84.9257 196.226 84.9257C194.391 84.9257 192.904 86.4181 192.904 88.2591C192.904 90.1001 194.391 91.5925 196.226 91.5925Z" fill="#032E72"/>
<path d="M195.373 90.889C196.72 90.889 197.811 89.7936 197.811 88.4425C197.811 87.0913 196.72 85.9959 195.373 85.9959C194.026 85.9959 192.934 87.0913 192.934 88.4425C192.934 89.7936 194.026 90.889 195.373 90.889Z" fill="#043D8E"/>
<path d="M271.276 91.5925C273.111 91.5925 274.598 90.1001 274.598 88.2591C274.598 86.4181 273.111 84.9257 271.276 84.9257C269.441 84.9257 267.953 86.4181 267.953 88.2591C267.953 90.1001 269.441 91.5925 271.276 91.5925Z" fill="#032E72"/>
<path d="M270.239 90.7056C271.485 90.7056 272.495 89.6924 272.495 88.4426C272.495 87.1927 271.485 86.1795 270.239 86.1795C268.994 86.1795 267.984 87.1927 267.984 88.4426C267.984 89.6924 268.994 90.7056 270.239 90.7056Z" fill="#043D8E"/>
<path d="M196.226 107.006C198.061 107.006 199.549 105.513 199.549 103.672C199.549 101.831 198.061 100.339 196.226 100.339C194.391 100.339 192.904 101.831 192.904 103.672C192.904 105.513 194.391 107.006 196.226 107.006Z" fill="#032E72"/>
<path d="M195.373 106.302C196.72 106.302 197.811 105.207 197.811 103.856C197.811 102.504 196.72 101.409 195.373 101.409C194.026 101.409 192.934 102.504 192.934 103.856C192.934 105.207 194.026 106.302 195.373 106.302Z" fill="#043D8E"/>
<path d="M271.276 107.006C273.111 107.006 274.598 105.513 274.598 103.672C274.598 101.831 273.111 100.339 271.276 100.339C269.441 100.339 267.953 101.831 267.953 103.672C267.953 105.513 269.441 107.006 271.276 107.006Z" fill="#032E72"/>
<path d="M270.239 106.119C271.485 106.119 272.495 105.106 272.495 103.856C272.495 102.606 271.485 101.593 270.239 101.593C268.994 101.593 267.984 102.606 267.984 103.856C267.984 105.106 268.994 106.119 270.239 106.119Z" fill="#043D8E"/>
<path d="M272.952 148.346C271.52 149.508 270.178 150.761 268.868 152.046H257.253C256.248 152.046 255.394 151.22 255.394 150.18C255.394 149.661 255.607 149.202 255.943 148.865C256.278 148.529 256.735 148.315 257.253 148.315H272.952V148.346Z" fill="#072A70"/>
<path d="M351.599 150.211C351.599 150.73 351.385 151.189 351.05 151.526C350.715 151.862 350.257 152.076 349.739 152.076H268.868C270.178 150.792 271.52 149.538 272.952 148.376H349.77C350.776 148.345 351.599 149.171 351.599 150.211Z" fill="#043D8E"/>
<path d="M262.1 160.242C261.277 161.465 260.485 162.75 259.723 164.034H248.718H248.688C247.651 164.003 246.828 163.178 246.828 162.138C246.828 161.618 247.042 161.129 247.377 160.792C247.712 160.456 248.2 160.242 248.718 160.242H262.1Z" fill="#072A70"/>
<path d="M360.439 162.169C360.439 162.689 360.226 163.178 359.89 163.514C359.555 163.851 359.067 164.065 358.549 164.065H259.723C260.454 162.78 261.247 161.496 262.1 160.273H358.549C359.585 160.242 360.439 161.098 360.439 162.169Z" fill="#043D8E"/>
<path d="M255.943 172.169C255.485 173.423 255.059 174.677 254.662 175.961H240.396C239.36 175.961 238.506 175.105 238.506 174.065C238.506 173.545 238.72 173.056 239.055 172.719C239.39 172.383 239.878 172.169 240.396 172.169H255.943Z" fill="#072A70"/>
<path d="M365.499 174.065C365.499 174.585 365.286 175.074 364.95 175.411C364.615 175.747 364.127 175.961 363.609 175.961H254.662C255.059 174.677 255.455 173.423 255.943 172.169H363.609C364.645 172.169 365.499 173.025 365.499 174.065Z" fill="#043D8E"/>
<path d="M303.131 154.218V157.888H267.953C268.929 156.634 269.935 155.41 271.001 154.218H303.131Z" fill="#E39614"/>
<path d="M262.405 169.813H317.763V166.143H264.143C263.503 167.336 262.923 168.559 262.405 169.813Z" fill="#E39614"/>
<path d="M259.265 182.322H336.449V178.683H259.997C259.692 179.875 259.448 181.099 259.265 182.322Z" fill="#E39614"/>
<path d="M70.0998 4.60123C71.3704 4.60123 72.4005 3.57121 72.4005 2.30062C72.4005 1.03002 71.3704 0 70.0998 0C68.8292 0 67.7992 1.03002 67.7992 2.30062C67.7992 3.57121 68.8292 4.60123 70.0998 4.60123Z" fill="#E39614"/>
<path fill-rule="evenodd" clip-rule="evenodd" d="M240.152 78.5602H237.754V78.0596C236.302 77.902 235.276 76.9434 235.276 75.6906C235.276 74.4265 236.195 73.3182 237.754 73.1687V72.4836C235.987 72.6625 234.867 73.7746 234.631 75.1209V66.8492H240.152V78.5602ZM233.214 75.0159C232.98 73.6016 231.861 72.6048 229.929 72.5229V66.8492H233.214V75.0159ZM234.631 76.1837C234.837 77.3367 235.74 78.244 237.014 78.5608H234.631V76.1837ZM233.215 76.1311V78.5603H230.564C232.023 78.2948 232.999 77.383 233.215 76.1311ZM229.929 73.212C231.747 73.212 232.568 74.2432 232.568 75.6192C232.568 76.9923 231.605 78.0127 229.929 78.0127V73.212ZM228.528 78.6919H240.311V66.7179H228.528V78.6919Z" fill="#5CAAFE"/>
</svg>
