<svg width="13" height="14" viewBox="0 0 13 14" fill="none" xmlns="http://www.w3.org/2000/svg">
<path d="M5.31818 0C5.00914 0 4.69241 0.107333 4.46845 0.328417C4.24509 0.548333 4.13636 0.861 4.13636 1.16667V1.75H0V2.91667H0.646454L1.77273 13.4715L1.82827 14H11.1717L11.2273 13.4715L12.3535 2.91667H13V1.75H8.86364V1.16667C8.86364 0.861583 8.75491 0.548917 8.53095 0.327833C8.30818 0.107333 7.99086 0 7.68182 0H5.31818ZM5.31818 1.16667H7.68182V1.75H5.31818V1.16667ZM1.84659 2.91667H11.1534L10.101 12.8333H2.899L1.84659 2.91667ZM4.13636 4.66667V11.0833H5.31818V4.66667H4.13636ZM5.90909 4.66667V11.0833H7.09091V4.66667H5.90909ZM7.68182 4.66667V11.0833H8.86364V4.66667H7.68182Z" fill="#FF0000"/>
</svg>
