<svg width="20" height="20" viewBox="0 0 20 20" fill="none" xmlns="http://www.w3.org/2000/svg">
<path d="M7.77611 0C12.0624 0 15.5525 3.48989 15.5525 7.77605C15.5525 9.63841 14.8992 11.3453 13.8028 12.6851L19.9998 18.8802L18.8807 20L12.6845 13.8033C11.3007 14.9377 9.56555 15.556 7.77611 15.5521C3.48978 15.5521 -0.000244141 12.0622 -0.000244141 7.77605C-0.000244141 3.48989 3.48978 0 7.77611 0ZM7.77611 1.55521C4.33118 1.55521 1.55503 4.33126 1.55503 7.77605C1.55503 11.2208 4.33118 13.9969 7.77611 13.9969C11.221 13.9969 13.9972 11.2208 13.9972 7.77605C13.9972 4.33126 11.221 1.55521 7.77611 1.55521Z" fill="black"/>
</svg>
