<svg width="14" height="14" viewBox="0 0 14 14" fill="none" xmlns="http://www.w3.org/2000/svg">
<path d="M12.2701 0C11.8226 0 11.3843 0.173474 11.0466 0.511077L5.25863 6.27894L5.13067 6.40686L5.09444 6.58968L4.69245 8.63399L4.51015 9.49143L5.36847 9.30919L7.4135 8.90734L7.59579 8.87113L7.72375 8.74321L13.4936 2.95724C13.7355 2.71488 13.9001 2.40637 13.9668 2.07061C14.0335 1.73485 13.9992 1.38687 13.8684 1.07054C13.7375 0.754205 13.5159 0.483676 13.2315 0.293059C12.9471 0.102441 12.6126 0.000850392 12.2701 0ZM12.2701 1.13196C12.4069 1.13196 12.5418 1.20205 12.6721 1.3323C12.9321 1.59281 12.9321 1.87551 12.6721 2.13542L7.0115 7.79465L6.0071 7.99558L6.2081 6.99153L11.8687 1.33289C11.9984 1.20322 12.1334 1.13196 12.2701 1.13196ZM0 2.31824V14H11.6858V6.29705L10.5173 7.46523V12.8318H1.16858V3.48642H6.53706L7.70564 2.31824H0Z" fill="#FF7A00"/>
</svg>
