<svg width="18" height="9" viewBox="0 0 18 9" fill="none" xmlns="http://www.w3.org/2000/svg">
<path d="M9 0C4.11053 0 0.34841 4.131 0.34841 4.131L0 4.5L0.34841 4.869C0.34841 4.869 3.77855 8.61975 8.34013 8.96513C8.55774 8.991 8.77535 9 9 9C9.22465 9 9.44226 8.991 9.65987 8.96456C14.2215 8.61975 17.6516 4.86956 17.6516 4.86956L18 4.5L17.6516 4.131C17.6516 4.131 13.8895 0 9 0ZM9 1.125C10.2922 1.125 11.4834 1.46363 12.5193 1.91588C12.8929 2.50931 13.1058 3.19275 13.1058 3.9375C13.1083 4.90713 12.7374 5.84349 12.0642 6.56695C11.391 7.2904 10.4629 7.75 9.45809 7.85756C9.44636 7.85981 9.43287 7.85531 9.42173 7.85756C9.28154 7.86375 9.14194 7.875 9 7.875C8.84398 7.875 8.69323 7.866 8.54191 7.85756C7.53706 7.75 6.60902 7.2904 5.93582 6.56695C5.26262 5.84349 4.89168 4.90713 4.89416 3.9375C4.89416 3.20344 5.10063 2.52 5.46253 1.93331H5.44434C6.48781 1.47206 7.69376 1.125 9 1.125ZM9 2.25C8.53316 2.25015 8.0855 2.42814 7.7555 2.74482C7.4255 3.0615 7.2402 3.49092 7.24035 3.93863C7.24051 4.38633 7.42611 4.81563 7.75633 5.1321C8.08655 5.44857 8.53433 5.62627 9.00117 5.62613C9.23233 5.62605 9.46121 5.58231 9.67474 5.49741C9.88827 5.41251 10.0823 5.28811 10.2457 5.13131C10.4091 4.9745 10.5387 4.78837 10.6271 4.58354C10.7154 4.3787 10.7609 4.15918 10.7608 3.9375C10.7607 3.71582 10.7151 3.49633 10.6266 3.29155C10.5381 3.08677 10.4084 2.90072 10.2448 2.74402C10.0813 2.58733 9.88725 2.46305 9.67366 2.37828C9.46007 2.29352 9.23116 2.24993 9 2.25ZM3.8677 2.77762C3.77234 3.15753 3.72313 3.54675 3.72106 3.9375C3.72106 4.92413 4.01434 5.84719 4.52757 6.62681C3.48633 6.04185 2.53086 5.32664 1.68633 4.5C2.35116 3.85677 3.08199 3.2801 3.8677 2.77762ZM14.1323 2.77762C14.918 3.27992 15.6488 3.85697 16.3137 4.5C15.4691 5.32664 14.5137 6.04185 13.4724 6.62681C14.0015 5.82175 14.2812 4.88911 14.2789 3.9375C14.2789 3.53531 14.2238 3.15169 14.1323 2.77762Z" fill="#00BB4B"/>
</svg>
